<svg xmlns="http://www.w3.org/2000/svg" xmlns:xlink="http://www.w3.org/1999/xlink" width="164" height="53" viewBox="0 0 164 53">
    <defs>
        <path id="a" d="M0 .95h163.537V54H0z"/>
        <path id="c" d="M0 54.05h163.537V1H0z"/>
    </defs>
    <g fill="none" fill-rule="evenodd" transform="translate(0 -1)">
        <g transform="translate(0 .05)">
            <mask id="b" fill="#fff">
                <use xlink:href="#a"/>
            </mask>
            <path fill="#000" d="M10.501 53.997c-.423 0-.835-.005-1.254-.015-.776-.022-1.695-.065-2.592-.226a8.14 8.14 0 0 1-2.298-.76 7.496 7.496 0 0 1-1.937-1.41 7.36 7.36 0 0 1-1.416-1.937 7.957 7.957 0 0 1-.753-2.298c-.169-.933-.212-1.88-.23-2.6-.01-.293-.02-1.267-.02-1.267V11.447s.011-.959.02-1.24C.038 9.48.081 8.533.25 7.61a7.963 7.963 0 0 1 .753-2.305 7.47 7.47 0 0 1 1.407-1.939 7.732 7.732 0 0 1 1.945-1.418 8.057 8.057 0 0 1 2.293-.754C7.583 1.026 8.53.984 9.25.966L10.502.95h142.526l1.267.018c.711.017 1.657.06 2.577.225a8.254 8.254 0 0 1 2.317.76c.711.364 1.363.84 1.93 1.41a7.707 7.707 0 0 1 1.42 1.946 8.01 8.01 0 0 1 .742 2.287c.161.875.211 1.774.241 2.617.004.393.004.815.004 1.235.011.52.011 1.015.011 1.514v29.025c0 .504 0 .996-.01 1.492 0 .451 0 .864-.006 1.29-.029.816-.079 1.714-.237 2.57a7.997 7.997 0 0 1-.749 2.316 7.622 7.622 0 0 1-1.409 1.921 7.481 7.481 0 0 1-1.94 1.418 8.128 8.128 0 0 1-2.314.763c-.888.161-1.808.204-2.592.226-.407.01-.832.015-1.245.015l-1.503.003-141.03-.003z" mask="url(#b)"/>
        </g>
        <path fill="#FFF" d="M33.14 27.94c-.035-3.814 3.124-5.671 3.268-5.757-1.788-2.608-4.56-2.965-5.535-2.993-2.329-.244-4.587 1.394-5.773 1.394-1.21 0-3.037-1.37-5.005-1.33-2.533.04-4.903 1.507-6.203 3.784-2.682 4.644-.682 11.469 1.888 15.223 1.285 1.838 2.787 3.89 4.753 3.818 1.924-.08 2.642-1.227 4.964-1.227 2.301 0 2.975 1.227 4.981 1.18 2.064-.033 3.364-1.846 4.605-3.701 1.485-2.107 2.082-4.183 2.106-4.29-.048-.015-4.01-1.526-4.049-6.1M29.352 16.721c1.034-1.294 1.742-3.054 1.546-4.84-1.498.065-3.371 1.034-4.449 2.301-.954 1.115-1.806 2.943-1.586 4.661 1.682.125 3.409-.848 4.489-2.122M51.572 35.278h5.203l-2.565-7.555h-.07l-2.568 7.555zm5.885 2.148h-6.565l-1.576 4.655h-2.78l6.217-17.222h2.89L61.86 42.08h-2.828l-1.575-4.655zM72.64 35.803c0-2.542-1.315-4.213-3.319-4.213-1.969 0-3.294 1.706-3.294 4.213 0 2.53 1.325 4.224 3.294 4.224 2.004 0 3.318-1.659 3.318-4.224m2.65 0c0 3.902-2.089 6.41-5.24 6.41-1.79 0-3.21-.802-3.952-2.198h-.059v6.22H63.46v-16.71h2.495v2.088h.048c.716-1.348 2.244-2.22 3.998-2.22 3.187 0 5.287 2.52 5.287 6.41M86.46 35.803c0-2.542-1.315-4.213-3.319-4.213-1.969 0-3.294 1.706-3.294 4.213 0 2.53 1.325 4.224 3.294 4.224 2.004 0 3.318-1.659 3.318-4.224m2.65 0c0 3.902-2.089 6.41-5.24 6.41-1.79 0-3.21-.802-3.952-2.198h-.059v6.22H77.28v-16.71h2.495v2.088h.048c.716-1.348 2.244-2.22 3.998-2.22 3.187 0 5.287 2.52 5.287 6.41M98.242 37.282c.191 1.708 1.85 2.829 4.117 2.829 2.173 0 3.736-1.121 3.736-2.661 0-1.337-.943-2.137-3.175-2.686l-2.232-.537c-3.162-.764-4.63-2.243-4.63-4.643 0-2.972 2.59-5.013 6.266-5.013 3.64 0 6.134 2.041 6.218 5.013h-2.602c-.156-1.719-1.576-2.756-3.653-2.756-2.076 0-3.496 1.049-3.496 2.577 0 1.218.907 1.934 3.127 2.483l1.897.465c3.534.836 5.002 2.255 5.002 4.775 0 3.222-2.567 5.24-6.649 5.24-3.819 0-6.398-1.971-6.564-5.086h2.638zM114.38 26.553v2.97h2.388v2.042h-2.389v6.923c0 1.075.478 1.576 1.528 1.576.263 0 .681-.036.849-.06v2.029c-.287.072-.86.12-1.433.12-2.541 0-3.533-.955-3.533-3.39v-7.198h-1.826v-2.041h1.826v-2.971h2.59zM127.436 35.803c0-2.71-1.242-4.31-3.33-4.31-2.09 0-3.33 1.612-3.33 4.31 0 2.721 1.24 4.308 3.33 4.308 2.088 0 3.33-1.587 3.33-4.308m-9.286 0c0-3.95 2.327-6.433 5.956-6.433 3.64 0 5.956 2.482 5.956 6.433 0 3.962-2.304 6.433-5.956 6.433-3.652 0-5.956-2.47-5.956-6.433M132.187 29.524h2.458v2.137h.06c.394-1.42 1.54-2.268 3.02-2.268.37 0 .68.048.883.096V31.9c-.203-.084-.657-.156-1.158-.156-1.66 0-2.686 1.123-2.686 2.89v7.446h-2.577V29.524zM141.778 34.645h6.277c-.059-1.922-1.289-3.187-3.079-3.187-1.779 0-3.067 1.29-3.198 3.187zm8.713 3.748c-.347 2.28-2.567 3.843-5.407 3.843-3.653 0-5.92-2.447-5.92-6.373 0-3.939 2.28-6.493 5.812-6.493 3.474 0 5.658 2.386 5.658 6.193v.883h-8.868v.156c0 2.148 1.35 3.557 3.378 3.557 1.431 0 2.554-.68 2.9-1.766h2.447zM51.404 19.08c1.158 0 1.77-.47 1.77-1.347 0-.866-.635-1.32-1.844-1.32h-1.784v2.668h1.858zM49.546 15.4h1.525c1.136 0 1.727-.418 1.727-1.204 0-.763-.557-1.21-1.51-1.21h-1.742v2.414zM48.26 20.17v-8.276h3.326c1.555 0 2.489.79 2.489 2.064 0 .867-.636 1.64-1.45 1.779v.097c1.117.115 1.863.912 1.863 1.99 0 1.456-1.06 2.346-2.828 2.346h-3.4zM59.824 17.87v-.521l-1.525.097c-.86.058-1.25.35-1.25.9 0 .563.487.89 1.158.89.929 0 1.617-.591 1.617-1.365m-4.014.534c0-1.124.837-1.773 2.322-1.865l1.692-.097v-.54c0-.66-.436-1.031-1.28-1.031-.687 0-1.163.252-1.3.694H56.05c.126-1.073 1.135-1.761 2.55-1.761 1.567 0 2.45.78 2.45 2.099v4.267h-1.186v-.878h-.098c-.372.625-1.055.98-1.876.98-1.204 0-2.081-.727-2.081-1.868"/>
        <mask id="d" fill="#fff">
            <use xlink:href="#c"/>
        </mask>
        <path fill="#FFF" d="M63.002 20.17h1.228v-6.245h-1.228v6.245zm-.182-8.092c0-.43.338-.756.797-.756.458 0 .797.326.797.757 0 .423-.339.75-.797.75-.459 0-.797-.327-.797-.75zM68.46 17.957l-1.364 2.214h-1.353l2.07-3.11-2.088-3.135h1.44l1.341 2.202h.099l1.33-2.202h1.37l-2.059 3.085 2.082 3.16h-1.416l-1.36-2.214zM82.384 13.925h1.187v.992h.092c.304-.694.924-1.113 1.864-1.113 1.393 0 2.16.837 2.16 2.323v4.043h-1.231v-3.733c0-1.004-.436-1.503-1.348-1.503-.911 0-1.491.608-1.491 1.583v3.653h-1.233v-6.245zM93.253 17.87v-.521l-1.525.097c-.86.058-1.25.35-1.25.9 0 .563.487.89 1.158.89.93 0 1.617-.591 1.617-1.365m-4.014.534c0-1.124.837-1.773 2.322-1.865l1.692-.097v-.54c0-.66-.436-1.031-1.279-1.031-.688 0-1.164.252-1.3.694H89.48c.126-1.073 1.135-1.761 2.551-1.761 1.566 0 2.45.78 2.45 2.099v4.267h-1.187v-.878h-.098c-.372.625-1.055.98-1.876.98-1.204 0-2.08-.727-2.08-1.868M73.497 16.44h3.198c-.03-.982-.65-1.669-1.567-1.669-.918 0-1.564.7-1.631 1.668zm4.44 1.908c-.183 1.168-1.29 2-2.755 2-1.878 0-3.016-1.272-3.016-3.289 0-2.007 1.155-3.344 2.962-3.344 1.776 0 2.883 1.252 2.883 3.191v.451h-4.518v.078c0 1.113.667 1.848 1.719 1.848.748 0 1.303-.376 1.479-.935h1.246z" mask="url(#d)"/>
    </g>
</svg>
