<svg xmlns="http://www.w3.org/2000/svg" xmlns:xlink="http://www.w3.org/1999/xlink" width="178" height="54" viewBox="0 0 178 54">
    <defs>
        <path id="a" d="M0 .499h177.54v52.604H0z"/>
        <path id="c" d="M0 53.103h177.54V.5H0z"/>
        <path id="e" d="M.703 5.747v.384l5.426 5.428.124-.069 6.43-3.653c1.835-1.044 1.835-2.751 0-3.795L6.252.389 6.13.319.703 5.747z"/>
        <linearGradient id="f" x1="80.754%" x2="-157.297%" y1="50.005%" y2="50.005%">
            <stop offset="0%" stop-color="#F79A1C"/>
            <stop offset="100%" stop-color="#FFDF00"/>
        </linearGradient>
        <path id="h" d="M.448 16.626c.605.641 1.604.72 2.73.08L22.374 5.802 16.824.249.447 16.626z"/>
        <linearGradient id="i" x1="86.246%" x2="-50.144%" y1="30.899%" y2="136.021%">
            <stop offset="0%" stop-color="#ED4446"/>
            <stop offset="100%" stop-color="#C4156B"/>
        </linearGradient>
        <path id="k" d="M.448.942l16.375 16.376 5.55-5.55L3.179.861C2.65.561 2.15.421 1.705.421 1.201.42.769.6.448.94"/>
        <linearGradient id="l" x1="-50.752%" x2="60.607%" y1="-36.486%" y2="49.338%">
            <stop offset="0%" stop-color="#74C167"/>
            <stop offset="100%" stop-color="#269E6E"/>
        </linearGradient>
        <path id="n" d="M0 53.103h177.54V.5H0z"/>
    </defs>
    <g fill="none" fill-rule="evenodd">
        <g transform="translate(0 .45)">
            <mask id="b" fill="#fff">
                <use xlink:href="#a"/>
            </mask>
            <path fill="#000" d="M170.965 53.103H6.575C2.96 53.103 0 50.145 0 46.528V7.074C0 3.458 2.96.5 6.575.5h164.39c3.616 0 6.575 2.96 6.575 6.575v39.454c0 3.617-2.959 6.575-6.575 6.575" mask="url(#b)"/>
            <mask id="d" fill="#fff">
                <use xlink:href="#c"/>
            </mask>
            <path fill="#FFF" d="M140.633 39.953h2.453V23.512h-2.453v16.44zm22.103-10.519l-2.813 7.128h-.084l-2.92-7.128h-2.643l4.378 9.962-2.496 5.542h2.56l6.747-15.504h-2.729zm-13.917 8.65c-.804 0-1.924-.4-1.924-1.395 0-1.269 1.395-1.755 2.6-1.755 1.08 0 1.587.232 2.242.55a2.973 2.973 0 0 1-2.918 2.6zm.296-9.009c-1.777 0-3.617.782-4.379 2.517l2.18.91c.465-.91 1.332-1.207 2.241-1.207 1.269 0 2.56.761 2.58 2.116v.168c-.443-.253-1.395-.634-2.559-.634-2.347 0-4.738 1.29-4.738 3.702 0 2.2 1.925 3.617 4.083 3.617 1.65 0 2.56-.74 3.13-1.608h.084v1.27h2.37v-6.304c0-2.919-2.179-4.547-4.992-4.547zm-15.165 2.36h-3.49V25.8h3.49c1.835 0 2.876 1.519 2.876 2.818 0 1.274-1.041 2.817-2.876 2.817zm-.064-7.923h-5.88v16.44h2.454v-6.228h3.426c2.72 0 5.394-1.97 5.394-5.106 0-3.137-2.673-5.106-5.394-5.106zm-32.064 14.576c-1.695 0-3.114-1.42-3.114-3.369 0-1.97 1.42-3.41 3.114-3.41 1.674 0 2.988 1.44 2.988 3.41 0 1.95-1.314 3.37-2.988 3.37zm2.818-7.733h-.085c-.55-.657-1.61-1.25-2.944-1.25-2.797 0-5.361 2.457-5.361 5.614 0 3.136 2.564 5.572 5.36 5.572 1.335 0 2.395-.592 2.945-1.27h.085v.805c0 2.14-1.144 3.284-2.988 3.284-1.504 0-2.436-1.08-2.817-1.992l-2.14.89c.614 1.483 2.246 3.305 4.957 3.305 2.882 0 5.32-1.695 5.32-5.827V29.444h-2.332v.911zm4.026 9.598h2.458V23.512h-2.458v16.44zm6.08-5.424c-.063-2.162 1.675-3.263 2.925-3.263.973 0 1.8.487 2.075 1.187l-5 2.076zm7.628-1.865c-.466-1.25-1.886-3.56-4.789-3.56-2.88 0-5.275 2.268-5.275 5.594 0 3.136 2.373 5.593 5.551 5.593 2.563 0 4.046-1.567 4.661-2.478l-1.907-1.271c-.635.932-1.504 1.546-2.754 1.546s-2.14-.572-2.712-1.695l7.48-3.093-.255-.636zm-59.586-1.843v2.373h5.678c-.17 1.335-.614 2.31-1.292 2.987-.826.826-2.118 1.738-4.386 1.738-3.495 0-6.229-2.819-6.229-6.314 0-3.496 2.734-6.314 6.23-6.314 1.885 0 3.262.742 4.279 1.695l1.673-1.674c-1.418-1.356-3.304-2.394-5.953-2.394-4.788 0-8.814 3.898-8.814 8.687 0 4.788 4.026 8.686 8.814 8.686 2.585 0 4.535-.847 6.06-2.436 1.568-1.567 2.055-3.771 2.055-5.551 0-.551-.042-1.06-.127-1.483h-7.988zm14.57 7.267c-1.695 0-3.156-1.398-3.156-3.39 0-2.013 1.46-3.39 3.156-3.39 1.695 0 3.157 1.377 3.157 3.39 0 1.992-1.462 3.39-3.157 3.39zm0-8.984c-3.093 0-5.614 2.352-5.614 5.594 0 3.22 2.521 5.593 5.614 5.593 3.094 0 5.614-2.372 5.614-5.593 0-3.242-2.52-5.594-5.614-5.594zm12.248 8.984c-1.694 0-3.156-1.398-3.156-3.39 0-2.013 1.462-3.39 3.156-3.39 1.695 0 3.157 1.377 3.157 3.39 0 1.992-1.462 3.39-3.157 3.39zm0-8.984c-3.093 0-5.614 2.352-5.614 5.594 0 3.22 2.521 5.593 5.614 5.593 3.094 0 5.615-2.372 5.615-5.593 0-3.242-2.521-5.594-5.615-5.594z" mask="url(#d)"/>
            <path fill="#5BC8F3" d="M13.723 10.424c-.382.405-.608 1.033-.608 1.847v29.06c0 .814.226 1.443.608 1.847l.097.095 16.28-16.28v-.383L13.82 10.33l-.097.094z" mask="url(#d)"/>
        </g>
        <g transform="translate(29.397 21.311)">
            <mask id="g" fill="#fff">
                <use xlink:href="#e"/>
            </mask>
            <path fill="url(#f)" d="M.703 5.747v.384l5.426 5.428.124-.069 6.43-3.653c1.835-1.044 1.835-2.751 0-3.795L6.252.389 6.13.319.703 5.747z" mask="url(#g)"/>
        </g>
        <g transform="translate(13.276 27.001)">
            <mask id="j" fill="#fff">
                <use xlink:href="#h"/>
            </mask>
            <path fill="url(#i)" d="M.448 16.626c.605.641 1.604.72 2.73.08L22.374 5.802 16.824.249.447 16.626z" mask="url(#j)"/>
        </g>
        <g transform="translate(13.276 9.932)">
            <mask id="m" fill="#fff">
                <use xlink:href="#k"/>
            </mask>
            <path fill="url(#l)" d="M.448.942l16.375 16.376 5.55-5.55L3.179.861C2.65.561 2.15.421 1.705.421 1.201.42.769.6.448.94" mask="url(#m)"/>
        </g>
        <g transform="translate(0 .45)">
            <path fill="#FFF" d="M55.377 16.626h1.4c.91 0 1.633-.26 2.166-.782.533-.522.798-1.254.798-2.194 0-.933-.265-1.662-.798-2.188-.533-.524-1.256-.788-2.166-.788h-1.4v5.952zm-1.013.97V9.704h2.413c1.213 0 2.182.366 2.91 1.098.727.73 1.09 1.679 1.09 2.848 0 1.168-.363 2.118-1.09 2.849-.728.73-1.697 1.097-2.91 1.097h-2.413z"/>
            <path stroke="#FFF" stroke-width=".2" d="M55.377 16.626h1.4c.91 0 1.633-.26 2.166-.782.533-.522.798-1.254.798-2.194 0-.933-.265-1.662-.798-2.188-.533-.524-1.256-.788-2.166-.788h-1.4v5.952zm-1.013.97V9.704h2.413c1.213 0 2.182.366 2.91 1.098.727.73 1.09 1.679 1.09 2.848 0 1.168-.363 2.118-1.09 2.849-.728.73-1.697 1.097-2.91 1.097h-2.413z"/>
            <mask id="o" fill="#fff">
                <use xlink:href="#n"/>
            </mask>
            <path fill="#FFF" d="M62.2 17.595h1.013v-7.89h-1.014z" mask="url(#o)"/>
            <path stroke="#FFF" stroke-width=".2" d="M62.2 17.595h1.013v-7.89h-1.014z" mask="url(#o)"/>
            <path fill="#FFF" d="M67.247 17.771c-.573 0-1.133-.186-1.68-.56-.549-.375-.907-.9-1.075-1.577l.925-.375c.111.434.336.799.677 1.097.344.296.726.445 1.153.445.44 0 .818-.114 1.13-.346.312-.231.467-.546.467-.942 0-.441-.155-.78-.467-1.02-.312-.239-.807-.46-1.482-.667-.7-.22-1.228-.505-1.588-.854-.359-.349-.54-.795-.54-1.339 0-.566.225-1.057.672-1.476.449-.418 1.033-.629 1.753-.629.668 0 1.212.168 1.63.502.419.334.691.7.816 1.097l-.924.385c-.068-.25-.23-.48-.492-.694-.26-.213-.596-.32-1.009-.32-.39 0-.721.108-.996.325-.276.218-.414.487-.414.81 0 .294.127.542.38.745.255.2.627.384 1.119.545.39.125.714.246.976.364.26.117.525.273.792.468.269.194.47.437.606.727.137.291.205.627.205 1.009 0 .382-.079.723-.236 1.024-.159.302-.37.54-.63.717a3.153 3.153 0 0 1-1.769.54" mask="url(#o)"/>
            <path stroke="#FFF" stroke-width=".2" d="M67.247 17.771c-.573 0-1.133-.186-1.68-.56-.549-.375-.907-.9-1.075-1.577l.925-.375c.111.434.336.799.677 1.097.344.296.726.445 1.153.445.44 0 .818-.114 1.13-.346.312-.231.467-.546.467-.942 0-.441-.155-.78-.467-1.02-.312-.239-.807-.46-1.482-.667-.7-.22-1.228-.505-1.588-.854-.359-.349-.54-.795-.54-1.339 0-.566.225-1.057.672-1.476.449-.418 1.033-.629 1.753-.629.668 0 1.212.168 1.63.502.419.334.691.7.816 1.097l-.924.385c-.068-.25-.23-.48-.492-.694-.26-.213-.596-.32-1.009-.32-.39 0-.721.108-.996.325-.276.218-.414.487-.414.81 0 .294.127.542.38.745.255.2.627.384 1.119.545.39.125.714.246.976.364.26.117.525.273.792.468.269.194.47.437.606.727.137.291.205.627.205 1.009 0 .382-.079.723-.236 1.024-.159.302-.37.54-.63.717a3.153 3.153 0 0 1-1.769.54z" mask="url(#o)"/>
            <path fill="#FFF" d="M72.35 13.43h1.697c.426 0 .768-.143 1.025-.43.257-.287.386-.602.386-.948 0-.345-.13-.66-.386-.947-.257-.287-.599-.43-1.025-.43h-1.698v2.754zm0 4.166h-1.015V9.704h2.69c.668 0 1.247.223 1.735.667.49.445.733 1.005.733 1.681 0 .676-.244 1.236-.733 1.68a2.491 2.491 0 0 1-1.735.667h-1.676v3.197z" mask="url(#o)"/>
            <path stroke="#FFF" stroke-width=".2" d="M72.35 13.43h1.697c.426 0 .768-.143 1.025-.43.257-.287.386-.602.386-.948 0-.345-.13-.66-.386-.947-.257-.287-.599-.43-1.025-.43h-1.698v2.754zm0 4.166h-1.015V9.704h2.69c.668 0 1.247.223 1.735.667.49.445.733 1.005.733 1.681 0 .676-.244 1.236-.733 1.68a2.491 2.491 0 0 1-1.735.667h-1.676v3.197z" mask="url(#o)"/>
            <path fill="#FFF" d="M79.187 15.915c.584.592 1.298.887 2.143.887.846 0 1.56-.295 2.144-.887.584-.592.877-1.346.877-2.264 0-.92-.293-1.674-.877-2.266-.583-.592-1.298-.886-2.144-.886-.845 0-1.56.294-2.143.886-.583.592-.876 1.347-.876 2.266 0 .918.293 1.672.876 2.264m5.037.661c-.776.798-1.74 1.196-2.894 1.196-1.153 0-2.118-.398-2.892-1.196-.776-.797-1.162-1.772-1.162-2.925 0-1.154.386-2.13 1.162-2.927.774-.797 1.739-1.196 2.892-1.196 1.147 0 2.109.4 2.888 1.202.779.8 1.168 1.774 1.168 2.92 0 1.154-.388 2.129-1.162 2.926" mask="url(#o)"/>
            <path stroke="#FFF" stroke-width=".2" d="M79.187 15.915c.584.592 1.298.887 2.143.887.846 0 1.56-.295 2.144-.887.584-.592.877-1.346.877-2.264 0-.92-.293-1.674-.877-2.266-.583-.592-1.298-.886-2.144-.886-.845 0-1.56.294-2.143.886-.583.592-.876 1.347-.876 2.266 0 .918.293 1.672.876 2.264zm5.037.661c-.776.798-1.74 1.196-2.894 1.196-1.153 0-2.118-.398-2.892-1.196-.776-.797-1.162-1.772-1.162-2.925 0-1.154.386-2.13 1.162-2.927.774-.797 1.739-1.196 2.892-1.196 1.147 0 2.109.4 2.888 1.202.779.8 1.168 1.774 1.168 2.92 0 1.154-.388 2.129-1.162 2.926z" mask="url(#o)"/>
            <path fill="#FFF" d="M86.809 17.596V9.705h1.235l3.834 6.138h.044l-.044-1.52V9.704h1.015v7.89h-1.058l-4.012-6.435h-.044l.044 1.52v4.916z" mask="url(#o)"/>
            <path stroke="#FFF" stroke-width=".2" d="M86.809 17.596V9.705h1.235l3.834 6.138h.044l-.044-1.52V9.704h1.015v7.89h-1.058l-4.012-6.435h-.044l.044 1.52v4.916z" mask="url(#o)"/>
            <path fill="#FFF" d="M95.647 9.088h-.881l.573-1.411h1.102l-.794 1.41zm-.948 8.508h1.014v-7.89h-1.014v7.89z" mask="url(#o)"/>
            <path stroke="#FFF" stroke-width=".2" d="M95.647 9.088h-.881l.573-1.411h1.102l-.794 1.41zm-.948 8.508h1.014v-7.89h-1.014v7.89z" mask="url(#o)"/>
            <path fill="#FFF" d="M99.47 17.596l-2.776-7.891h1.124l2.16 6.403h.044l2.248-6.403h1.125l-2.866 7.89z" mask="url(#o)"/>
            <path stroke="#FFF" stroke-width=".2" d="M99.47 17.596l-2.776-7.891h1.124l2.16 6.403h.044l2.248-6.403h1.125l-2.866 7.89z" mask="url(#o)"/>
            <path fill="#FFF" d="M109.147 10.674h-3.593v2.502h3.24v.948h-3.24v2.502h3.593v.97h-4.607V9.704h4.607z" mask="url(#o)"/>
            <path stroke="#FFF" stroke-width=".2" d="M109.147 10.674h-3.593v2.502h3.24v.948h-3.24v2.502h3.593v.97h-4.607V9.704h4.607z" mask="url(#o)"/>
            <path fill="#FFF" d="M110.734 17.596V9.705h1.014v6.92h3.415v.97z" mask="url(#o)"/>
            <path stroke="#FFF" stroke-width=".2" d="M110.734 17.596V9.705h1.014v6.92h3.415v.97z" mask="url(#o)"/>
            <path fill="#FFF" d="M119.087 17.596V9.705h1.235l3.834 6.138h.044l-.044-1.52V9.704h1.015v7.89h-1.058L120.1 11.16h-.044l.044 1.52v4.916z" mask="url(#o)"/>
            <path stroke="#FFF" stroke-width=".2" d="M119.087 17.596V9.705h1.235l3.834 6.138h.044l-.044-1.52V9.704h1.015v7.89h-1.058L120.1 11.16h-.044l.044 1.52v4.916z" mask="url(#o)"/>
            <path fill="#FFF" d="M128.394 15.915c.584.592 1.298.887 2.143.887.845 0 1.561-.295 2.144-.887.585-.592.878-1.346.878-2.264 0-.92-.293-1.674-.878-2.266-.583-.592-1.299-.886-2.144-.886-.845 0-1.559.294-2.143.886-.583.592-.876 1.347-.876 2.266 0 .918.293 1.672.876 2.264m5.038.661c-.776.798-1.74 1.196-2.895 1.196-1.153 0-2.117-.398-2.892-1.196-.776-.797-1.161-1.772-1.161-2.925 0-1.154.385-2.13 1.161-2.927.775-.797 1.74-1.196 2.892-1.196 1.148 0 2.11.4 2.889 1.202.778.8 1.167 1.774 1.167 2.92 0 1.154-.388 2.129-1.161 2.926" mask="url(#o)"/>
            <path stroke="#FFF" stroke-width=".2" d="M128.394 15.915c.584.592 1.298.887 2.143.887.845 0 1.561-.295 2.144-.887.585-.592.878-1.346.878-2.264 0-.92-.293-1.674-.878-2.266-.583-.592-1.299-.886-2.144-.886-.845 0-1.559.294-2.143.886-.583.592-.876 1.347-.876 2.266 0 .918.293 1.672.876 2.264zm5.038.661c-.776.798-1.74 1.196-2.895 1.196-1.153 0-2.117-.398-2.892-1.196-.776-.797-1.161-1.772-1.161-2.925 0-1.154.385-2.13 1.161-2.927.775-.797 1.74-1.196 2.892-1.196 1.148 0 2.11.4 2.889 1.202.778.8 1.167 1.774 1.167 2.92 0 1.154-.388 2.129-1.161 2.926z" mask="url(#o)"/>
        </g>
    </g>
</svg>
